<svg width="44" height="44" viewBox="0 0 44 44" fill="none" xmlns="http://www.w3.org/2000/svg">
    <circle cx="22" cy="22" r="22" fill="#F4F4F4"/>
    <rect x="8.7998" y="11" width="26.4" height="22" rx="4.4" fill="#F49500"/>
    <rect x="10.6333" y="12.8332" width="22.7333" height="18.3333" rx="2.56667" stroke="#F8F8F8" stroke-width="0.733333"/>
    <circle cx="21.9996" cy="20.1666" r="4.4" fill="#F8F8F8"/>
    <path d="M28.996 30.8001H15.0049C15.0693 30.5952 15.1429 30.3929 15.2253 30.1937C15.5939 29.304 16.134 28.4956 16.815 27.8146C17.496 27.1337 18.3044 26.5935 19.1941 26.225C20.0838 25.8564 21.0374 25.6667 22.0004 25.6667C22.9635 25.6667 23.9171 25.8564 24.8068 26.225C25.6965 26.5935 26.5049 27.1337 27.1859 27.8146C27.8669 28.4956 28.407 29.304 28.7756 30.1937C28.858 30.3929 28.9316 30.5952 28.996 30.8001Z" fill="#F8F8F8"/>
</svg>
