<svg width="44" height="44" viewBox="0 0 44 44" fill="none" xmlns="http://www.w3.org/2000/svg">
    <circle cx="22" cy="22" r="22" fill="#F4F4F4"/>
    <path fill-rule="evenodd" clip-rule="evenodd" d="M10.1367 17.4008C10.4618 17.3772 10.79 17.3652 11.1211 17.3652C18.5288 17.3652 24.5339 23.3703 24.5339 30.778C24.5339 31.2307 24.5115 31.6781 24.4677 32.1192H28.3491C31.6126 32.1192 34.2582 29.4736 34.2582 26.2101V17.9091C34.2582 14.6456 31.6126 12 28.3491 12H16.0243C12.932 12 10.3945 14.3752 10.1367 17.4008Z" fill="#F49500"/>
    <rect x="11.9495" y="13.8337" width="20.4756" height="16.4518" rx="3.44697" stroke="#F8F8F8" stroke-width="0.984848"/>
    <path fill-rule="evenodd" clip-rule="evenodd" d="M9.15234 27.3547C9.15234 26.9843 9.4526 26.6841 9.82298 26.6841C11.2797 26.6841 12.6768 27.2628 13.7069 28.2929C14.737 29.323 15.3157 30.7201 15.3157 32.1768C15.3157 32.5472 15.0155 32.8475 14.6451 32.8475C14.2747 32.8475 13.9744 32.5472 13.9744 32.1768C13.9744 31.0758 13.5371 30.0198 12.7585 29.2413C11.98 28.4627 10.924 28.0254 9.82298 28.0254C9.4526 28.0254 9.15234 27.7251 9.15234 27.3547Z" fill="#F49500"/>
    <path fill-rule="evenodd" clip-rule="evenodd" d="M9.26953 23.5911C9.26953 23.2207 9.56979 22.9204 9.94017 22.9204C12.3639 22.9204 14.6884 23.8832 16.4022 25.5971C18.1161 27.3109 19.0789 29.6354 19.0789 32.0591C19.0789 32.4295 18.7786 32.7298 18.4083 32.7298C18.0379 32.7298 17.7376 32.4295 17.7376 32.0591C17.7376 29.9911 16.9161 28.0078 15.4538 26.5455C13.9915 25.0832 12.0082 24.2617 9.94017 24.2617C9.56979 24.2617 9.26953 23.9614 9.26953 23.5911Z" fill="#F49500"/>
    <path fill-rule="evenodd" clip-rule="evenodd" d="M9.26953 19.8276C9.26953 19.4572 9.56979 19.157 9.94017 19.157C13.3621 19.157 16.6438 20.5163 19.0635 22.936C21.4831 25.3556 22.8425 28.6374 22.8425 32.0593C22.8425 32.4297 22.5422 32.7299 22.1718 32.7299C21.8015 32.7299 21.5012 32.4297 21.5012 32.0593C21.5012 28.9931 20.2832 26.0525 18.1151 23.8844C15.9469 21.7163 13.0063 20.4983 9.94017 20.4983C9.56979 20.4983 9.26953 20.198 9.26953 19.8276Z" fill="#F49500"/>
    <path d="M11.3522 31.8238C11.3522 32.4734 10.8257 33 10.1761 33C9.52657 33 9 32.4734 9 31.8238C9 31.1743 9.52657 30.6477 10.1761 30.6477C10.8257 30.6477 11.3522 31.1743 11.3522 31.8238Z" fill="#F49500"/>
</svg>
