<svg width="44" height="44" viewBox="0 0 40 40" fill="none" xmlns="http://www.w3.org/2000/svg">
    <circle cx="20" cy="20" r="20" fill="#F4F4F4"/>
    <circle cx="20.2812" cy="17.2812" r="2.75" fill="black"/>
    <path fill-rule="evenodd" clip-rule="evenodd" d="M29.5625 17.2812C29.5625 22.4071 25.4071 26.5625 20.2812 26.5625C15.1554 26.5625 11 22.4071 11 17.2812C11 12.1554 15.1554 8 20.2812 8C25.4071 8 29.5625 12.1554 29.5625 17.2812ZM25.0938 17.2812C25.0938 19.9391 22.9391 22.0938 20.2812 22.0938C17.6234 22.0938 15.4688 19.9391 15.4688 17.2812C15.4688 14.6234 17.6234 12.4688 20.2812 12.4688C22.9391 12.4688 25.0938 14.6234 25.0938 17.2812ZM23.375 11.4375C23.7547 11.4375 24.0625 11.1297 24.0625 10.75C24.0625 10.3703 23.7547 10.0625 23.375 10.0625C22.9953 10.0625 22.6875 10.3703 22.6875 10.75C22.6875 11.1297 22.9953 11.4375 23.375 11.4375Z" fill="#F49500"/>
    <path fill-rule="evenodd" clip-rule="evenodd" d="M26.4664 24.656C24.7937 26.0604 22.6362 26.9062 20.2811 26.9062C17.9254 26.9062 15.7674 26.0599 14.0944 24.6548L12.0083 29.2283C11.6968 29.9112 12.1959 30.6875 12.9465 30.6875H27.6138C28.3644 30.6875 28.8635 29.9112 28.552 29.2283L26.4664 24.656Z" fill="#F49500"/>
</svg>
